HIERARCHY
ROOT SpineBase
{
  OFFSET 0.000000 0.000000 0.000000
  CHANNELS 6 Xposition Yposition Zposition Zrotation Xrotation Yrotation
  JOINT SpineMid
  {
    OFFSET 0.000000 27.396857 0.000000
    CHANNELS 3 Zrotation Xrotation Yrotation
    JOINT SpineShoulder
    {
      OFFSET -0.056606 20.421155 -0.666300
      CHANNELS 3 Zrotation Xrotation Yrotation
      JOINT Neck
      {
        OFFSET -0.041087 6.771821 -0.506023
        CHANNELS 3 Zrotation Xrotation Yrotation
        JOINT Head
        {
          OFFSET -1.962820 10.882244 0.428444
          CHANNELS 3 Zrotation Xrotation Yrotation
          End Site
          {
            OFFSET 0 0 0
          }
        }
      }
      JOINT ShoulderLeft
      {
        OFFSET -16.255601 -2.804308 6.182315
        CHANNELS 3 Zrotation Xrotation Yrotation
        JOINT ElbowLeft
        {
          OFFSET -3.221347 -21.092787 0.267342
          CHANNELS 3 Zrotation Xrotation Yrotation
          JOINT WristLeft
          {
            OFFSET 4.365097 -7.609862 -23.171845
            CHANNELS 3 Zrotation Xrotation Yrotation
            JOINT HandLeft
            {
              OFFSET 3.802978 0.262633 -0.381675
              CHANNELS 3 Zrotation Xrotation Yrotation
              JOINT HandTipLeft
              {
                OFFSET 5.888137 0.544567 -6.000948
                CHANNELS 3 Zrotation Xrotation Yrotation
                End Site
                {
                  OFFSET 0 0 0
                }
              }
              JOINT ThumbLeft
              {
                OFFSET -3.955380 0.694319 -3.655474
                CHANNELS 3 Zrotation Xrotation Yrotation
                End Site
                {
                  OFFSET 0 0 0
                }
              }
            }
          }
        }
      }
      JOINT ShoulderRight
      {
        OFFSET 15.218397 -1.642891 -5.501135
        CHANNELS 3 Zrotation Xrotation Yrotation
        JOINT ElbowRight
        {
          OFFSET 9.109696 -20.362224 -2.350242
          CHANNELS 3 Zrotation Xrotation Yrotation
          JOINT WristRight
          {
            OFFSET -13.057714 -10.574148 -9.737879
            CHANNELS 3 Zrotation Xrotation Yrotation
            JOINT HandRight
            {
              OFFSET -4.021084 -0.682771 2.994106
              CHANNELS 3 Zrotation Xrotation Yrotation
              JOINT HandTipRight
              {
                OFFSET -8.540363 0.372378 -8.391750
                CHANNELS 3 Zrotation Xrotation Yrotation
                End Site
                {
                  OFFSET 0 0 0
                }
              }
              JOINT ThumbRight
              {
                OFFSET 0.592883 -6.663290 0.376138
                CHANNELS 3 Zrotation Xrotation Yrotation
                End Site
                {
                  OFFSET 0 0 0
                }
              }
            }
          }
        }
      }
    }
  }
  JOINT HipLeft
  {
    OFFSET -4.954680 0.204816 -1.680009
    CHANNELS 3 Zrotation Xrotation Yrotation
    JOINT KneeLeft
    {
      OFFSET -8.223265 -33.713503 4.056008
      CHANNELS 3 Zrotation Xrotation Yrotation
      JOINT AnkleLeft
      {
        OFFSET -2.390231 -36.280130 6.979180
        CHANNELS 3 Zrotation Xrotation Yrotation
        JOINT FootLeft
        {
          OFFSET -1.065768 -7.411882 -6.339545
          CHANNELS 3 Zrotation Xrotation Yrotation
          End Site
          {
            OFFSET 0 0 0
          }
        }
      }
    }
  }
  JOINT HipRight
  {
    OFFSET 4.510873 0.862759 -4.801329
    CHANNELS 3 Zrotation Xrotation Yrotation
    JOINT KneeRight
    {
      OFFSET 6.237795 -28.707362 2.320541
      CHANNELS 3 Zrotation Xrotation Yrotation
      JOINT AnkleRight
      {
        OFFSET 2.130397 -39.487630 11.439500
        CHANNELS 3 Zrotation Xrotation Yrotation
        JOINT FootRight
        {
          OFFSET -0.424357 -8.279992 -4.632495
          CHANNELS 3 Zrotation Xrotation Yrotation
          End Site
          {
            OFFSET 0 0 0
          }
        }
      }
    }
  }
}
MOTION
Frames: 6
Frame Time: 0.033333
27.547931 78.461124 372.349925 -0.000000 0.000000 18.250270 0.000000 0.000000 -18.250270 -0.000000 0.000000 0.000000 -0.000000 0.000000 0.000000 0.000000 0.000000 0.000000 -0.000000 0.000000 0.000000 -0.000000 0.000000 0.000000 -0.000000 0.000000 0.000000 -0.000000 0.000000 0.000000 0.000000 0.000000 0.000000 0.000000 0.000000 0.000000 -0.000000 0.000000 0.000000 -0.000000 0.000000 0.000000 -0.000000 0.000000 0.000000 -0.000000 0.000000 0.000000 0.000000 0.000000 0.000000 0.000000 0.000000 0.000000 0.000000 0.000000 -18.250270 -0.000000 0.000000 0.000000 -0.000000 0.000000 0.000000 0.000000 0.000000 0.000000 0.000000 0.000000 -18.250270 -0.000000 0.000000 0.000000 -0.000000 0.000000 0.000000 0.000000 0.000000 0.000000
27.515957 78.488508 372.201691 -0.025511 0.057185 17.888866 0.006712 -0.062257 -17.888849 -0.000000 0.000000 0.000000 -0.000000 0.000000 0.000000 0.000000 0.000000 0.000000 -0.000000 0.000000 0.000000 -0.321111 -0.324845 0.798697 4.930142 0.896752 -7.230456 -5.770215 -3.113430 8.786581 0.000000 0.000000 0.000000 0.000000 0.000000 0.000000 -0.000000 0.000000 0.000000 -0.000000 0.000000 0.000000 0.379604 -0.291488 3.409793 -2.357064 2.507842 -4.939433 0.000000 0.000000 0.000000 0.000000 0.000000 0.000000 0.006712 -0.062257 -17.888849 -0.000000 0.000000 0.000000 -2.828613 9.815832 1.158653 0.000000 0.000000 0.000000 0.006712 -0.062257 -17.888849 -0.000000 0.000000 0.000000 -0.026524 2.101414 -0.091446 0.000000 0.000000 0.000000
27.485742 78.510599 372.086347 -0.032503 0.103800 17.602514 -0.000409 -0.108769 -17.602485 -0.000000 0.000000 0.000000 -0.000000 0.000000 0.000000 0.000000 0.000000 0.000000 -0.000000 0.000000 0.000000 -0.356200 -0.424260 0.851039 7.587824 1.078629 -9.990573 -9.087547 -5.495066 12.826256 0.000000 0.000000 0.000000 0.000000 0.000000 0.000000 -0.000000 0.000000 0.000000 1.039496 -0.490774 -0.352147 0.144815 0.668044 4.823209 -5.044653 4.421168 -7.389189 0.000000 0.000000 0.000000 0.000000 0.000000 0.000000 -0.000409 -0.108769 -17.602485 -0.000000 0.000000 0.000000 -4.921690 16.459351 2.248925 0.000000 0.000000 0.000000 -0.424393 -1.100436 -17.848501 0.099668 1.073876 0.240607 -0.432656 4.895320 0.009292 0.000000 0.000000 0.000000
27.457286 78.527398 372.003894 -0.020998 0.139881 17.391385 -0.021772 -0.139763 -17.391386 -0.000000 0.000000 0.000000 -0.000000 0.000000 0.000000 0.000000 0.000000 0.000000 -0.000000 0.000000 0.000000 -0.000000 0.000000 0.000000 7.978097 0.786727 -8.392138 -10.656004 -6.730299 12.713485 0.000000 0.000000 0.000000 0.000000 0.000000 0.000000 -0.000000 0.000000 0.000000 1.621896 -0.789524 -0.519958 0.768227 2.023869 4.496238 -8.157619 5.637401 -8.176707 0.000000 0.000000 0.000000 0.000000 0.000000 0.000000 -0.021772 -0.139763 -17.391386 -0.000000 0.000000 0.000000 -6.315789 20.574864 3.063555 0.000000 0.000000 0.000000 -0.549254 -1.491711 -17.721247 0.091016 1.448327 0.321201 -1.232753 8.348919 0.337106 0.000000 0.000000 0.000000
27.430591 78.538903 371.954331 0.009000 0.165454 17.255606 -0.057674 -0.155338 -17.255697 -0.000000 0.000000 0.000000 -0.000000 0.000000 0.000000 0.000000 0.000000 0.000000 -0.000000 0.000000 0.000000 0.391511 0.012274 -1.182402 6.719467 0.868832 -3.626096 -10.914435 -6.826356 8.965852 0.000000 0.000000 0.000000 0.000000 0.000000 0.000000 -0.717418 0.332203 0.234086 2.958093 -1.468031 -0.897876 1.886625 4.000068 2.737995 -11.821919 5.863244 -7.520816 0.000000 0.000000 0.000000 0.000000 0.000000 0.000000 -0.057674 -0.155338 -17.255697 -0.000000 0.000000 0.000000 -7.049251 22.691259 3.511939 0.000000 0.000000 0.000000 -0.625637 -1.789182 -17.645233 0.046090 1.729101 0.379201 -2.445237 12.392864 0.938127 0.000000 0.000000 0.000000
27.405654 78.545115 371.937659 0.057509 0.180532 17.195279 -0.108309 -0.155461 -17.195517 -0.000000 0.000000 0.000000 -0.168203 -0.914539 -0.159771 0.000000 0.000000 0.000000 -0.000000 0.000000 0.000000 1.192869 0.517379 -3.275497 3.739343 0.163372 4.412967 -10.068368 -5.983652 1.984011 0.000000 0.000000 0.000000 0.000000 0.000000 0.000000 -0.871525 0.270740 0.224481 3.777817 -1.779906 -1.041204 3.802265 6.676650 -0.740963 -16.205993 4.598706 -5.368804 0.000000 0.000000 0.000000 0.000000 0.000000 0.000000 -0.108309 -0.155461 -17.195517 0.785780 -0.181645 0.164399 -7.872854 23.300332 3.410093 0.000000 0.000000 0.000000 -0.657037 -1.998556 -17.621422 0.078534 2.786325 0.492873 -4.167580 16.055888 1.716186 0.000000 0.000000 0.000000
